#!OML:ASF H:\ManfredObstacles\Project 1\Capture day 1\Session 1\Male.ASF
:FULLY-SPECIFIED
:DEGREES
596
root -2.97456 12.3626 -1.49504 -151.646 -2.44717 -184.454
lowerback 18.4852 1.82969 -6.21047
upperback 12.1413 -0.90915 1.1297
thorax 2.82175 -1.80273 4.80606
lowerneck 4.00009 -2.84628 -7.58576
upperneck -20.9255 -3.46788 13.5539
head -6.5415 -2.86274 6.01916
rclavicle 1.799e-014 -1.55052e-014
rhumerus 5.84326 -1.51417 -86.3814
rradius 31.1692
rwrist 36.4237
rhand -14.0063 1.16207
rfingers 7.12502
rthumb 12.1231 -28.4667
lclavicle 1.799e-014 -1.55052e-014
lhumerus 9.84272 -4.82252 80.9178
lradius 30.0459
lwrist -19.2533
lhand -15.7238 3.77873
lfingers 7.12502
lthumb 10.4666 33.4982
rfemur -39.1656 -3.59291 14.7947
rtibia 94.9127
rfoot 164.908 -158.372
rtoes 16.6862
lfemur -88.5677 -5.09269 -27.5116
ltibia 90.329
lfoot -18.7681 -10.8068
ltoes 26.7053
597
root -3.00819 12.6235 -1.58578 -151.444 -2.44881 -184.251
lowerback 17.808 1.68755 -6.15369
upperback 11.9729 -0.955052 1.09712
thorax 2.98719 -1.78801 4.73324
lowerneck 3.72676 -2.87262 -7.63101
upperneck -20.4358 -3.4795 13.7057
head -6.32937 -2.84781 6.04178
rclavicle 3.63776e-014 4.67144e-015
rhumerus 4.26383 -2.59223 -86.8454
rradius 30.8409
rwrist 36.0669
rhand -13.369 0.980483
rfingers 7.12502
rthumb 12.7375 -28.611
lclavicle 3.63776e-014 4.67144e-015
lhumerus 8.32793 -3.80613 81.348
lradius 28.9566
lwrist -19.5593
lhand -15.6098 3.89641
lfingers 7.12502
lthumb 10.5766 33.6103
rfemur -38.2167 -3.2082 14.905
rtibia 91.885
rfoot 165.868 -159.199
rtoes 13.7764
lfemur -86.4988 -5.06955 -27.3041
ltibia 87.586
lfoot -18.4436 -10.5747
ltoes 26.3289
598
root -3.03345 12.8898 -1.67685 -151.253 -2.63924 -184.047
lowerback 17.1732 1.50046 -6.05048
upperback 11.7935 -1.05718 1.10929
thorax 3.12886 -1.79884 4.69102
lowerneck 3.62711 -2.8512 -7.27474
upperneck -20.2491 -3.44728 13.5363
head -6.26993 -2.83467 5.90902
rclavicle -1.3418e-015 1.40143e-014
rhumerus 2.75876 -3.56462 -87.2276
rradius 30.6171
rwrist 35.0844
rhand -12.5016 0.561071
rfingers 7.12502
rthumb 13.5736 -28.9765
lclavicle -1.3418e-015 1.40143e-014
lhumerus 6.81942 -2.43437 81.8383
lradius 27.7933
lwrist -20.3147
lhand -15.5074 3.91809
lfingers 7.12502
lthumb 10.6754 33.6269
rfemur -37.2323 -2.98615 15.189
rtibia 88.8945
rfoot 167.112 -160.205
rtoes 12.5977
lfemur -84.3686 -5.13768 -26.986
ltibia 84.7209
lfoot -17.9993 -10.3045
ltoes 25.922
599
root -3.05842 13.154 -1.77011 -151.238 -2.74639 -183.831
lowerback 16.6651 1.46508 -5.85534
upperback 11.5472 -0.944809 1.1812
thorax 3.10527 -1.68792 4.63676
lowerneck 4.02978 -2.88399 -7.7258
upperneck -20.0683 -3.47338 13.8191
head -6.26183 -2.81843 6.08339
rclavicle -7.25564e-015 9.74045e-015
rhumerus 1.09099 -4.96696 -87.3319
rradius 30.4889
rwrist 34.0928
rhand -11.4908 -0.0779545
rfingers 7.12502
rthumb 14.5477 -29.5478
lclavicle -7.25564e-015 9.74045e-015
lhumerus 5.29561 -1.15728 82.6104
lradius 26.5258
lwrist -21.292
lhand -15.4365 4.01165
lfingers 7.12502
lthumb 10.7438 33.7169
rfemur -36.1686 -2.68382 15.4156
rtibia 86.0542
rfoot 168.809 -161.135
rtoes 13.5022
lfemur -82.0754 -5.1576 -26.6722
ltibia 81.857
lfoot -17.588 -9.88923
ltoes 25.0103
600
root -3.07891 13.4066 -1.86068 -151.238 -2.58584 -184.001
lowerback 16.2252 1.42269 -6.39737
upperback 11.3699 -0.975503 1.12634
thorax 3.15894 -1.70484 4.88351
lowerneck 4.33006 -2.71372 -7.72773
upperneck -19.9307 -3.25458 13.6912
head -6.30173 -2.69049 6.03291
rclavicle 3.76697e-014 -1.55052e-014
rhumerus -0.204682 -5.93103 -87.5812
rradius 30.1212
rwrist 33.6695
rhand -10.9734 -0.606397
rfingers 7.12502
rthumb 15.0461 -30.0397
lclavicle 3.76697e-014 -1.55052e-014
lhumerus 3.9587 0.75258 83.0926
lradius 25.2588
lwrist -22.3212
lhand -15.2689 4.12546
lfingers 7.12502
lthumb 10.9054 33.8223
rfemur -35.2497 -2.39794 15.1229
rtibia 83.4691
rfoot 170.654 -162.122
rtoes 14.9022
lfemur -79.7159 -5.19262 -26.8351
ltibia 78.9638
lfoot -17.1715 -9.49143
ltoes 24.4528
601
root -3.10248 13.6113 -1.96477 -151.059 -3.00973 -183.769
lowerback 15.3339 1.18042 -6.01526
upperback 11.1698 -1.08225 1.13334
thorax 3.41163 -1.69647 4.67064
lowerneck 3.1293 -2.89527 -7.17874
upperneck -18.7711 -3.47376 13.5396
head -5.71633 -2.75135 5.80042
rclavicle 2.61899e-014 1.92324e-014
rhumerus -1.66501 -7.25725 -87.7514
rradius 29.775
rwrist 33.9258
rhand -11.025 -0.792964
rfingers 7.12502
rthumb 14.9964 -30.2299
lclavicle 2.61899e-014 1.92324e-014
lhumerus 2.55795 2.27974 83.3672
lradius 24.1723
lwrist -23.2348
lhand -14.9312 4.20454
lfingers 7.12502
lthumb 11.2311 33.8839
rfemur -34.4333 -2.42514 15.5312
rtibia 81.1751
rfoot 172.402 -163.341
rtoes 16.3684
lfemur -77.8881 -5.45449 -26.4475
ltibia 76.3924
lfoot -16.6868 -9.25578
ltoes 24.2981
602
root -3.11735 13.8457 -2.05279 -150.908 -3.51619 -183.032
lowerback 14.7847 0.88789 -5.3917
upperback 10.804 -1.24138 1.24619
thorax 3.30823 -1.68228 4.45248
lowerneck 3.36951 -2.71142 -6.75561
upperneck -18.2512 -3.2212 13.2048
head -5.64396 -2.59525 5.58911
rclavicle 1.30196e-014 6.65521e-015
rhumerus -3.36361 -8.23522 -88.0041
rradius 29.7654
rwrist 34.1369
rhand -10.8234 -0.959251
rfingers 7.12502
rthumb 15.1906 -30.3816
lclavicle 1.30196e-014 6.65521e-015
lhumerus 0.880751 3.89518 83.2946
lradius 23.3761
lwrist -23.9188
lhand -14.3818 4.5852
lfingers 7.12502
lthumb 11.761 34.235
rfemur -33.9908 -2.09856 16.5738
rtibia 79.0491
rfoot 174.164 -164.763
rtoes 14.2327
lfemur -76.1118 -5.38146 -25.5049
ltibia 73.6851
lfoot -16.0071 -8.99028
ltoes 23.7496
603
root -3.13024 14.0762 -2.14409 -150.924 -3.78801 -182.702
lowerback 14.3447 0.831496 -5.04743
upperback 10.4836 -1.14864 1.33313
thorax 3.17595 -1.56684 4.33722
lowerneck 2.74704 -3.035 -6.78007
upperneck -17.211 -3.64229 13.2801
head -5.16524 -2.73135 5.56623
rclavicle -1.83876e-014 1.48592e-014
rhumerus -5.02015 -9.6337 -87.7978
rradius 29.9016
rwrist 34.1153
rhand -10.3671 -1.1586
rfingers 7.12502
rthumb 15.6301 -30.5472
lclavicle -1.83876e-014 1.48592e-014
lhumerus -0.636004 5.0179 83.5437
lradius 22.6359
lwrist -24.7092
lhand -13.6816 5.27364
lfingers 7.12502
lthumb 12.4361 34.8837
rfemur -33.5126 -1.76877 17.0356
rtibia 77.2476
rfoot 175.887 -166.121
rtoes 11.3733
lfemur -74.0674 -5.33645 -25.0791
ltibia 70.9747
lfoot -15.3065 -8.5502
ltoes 22.8294
604
root -3.1501 14.2995 -2.26351 -151.204 -3.92172 -183.189
lowerback 13.7578 0.937165 -5.15352
upperback 10.3497 -0.917983 1.27764
thorax 3.3183 -1.42935 4.30337
lowerneck 2.21124 -3.3563 -7.308
upperneck -16.5838 -4.02653 13.9917
head -4.80178 -2.89299 5.85327
rclavicle 1.36167e-014 1.09332e-015
rhumerus -6.5754 -11.534 -87.175
rradius 30.0829
rwrist 34.0284
rhand -9.84869 -1.47978
rfingers 7.12502
rthumb 16.1293 -30.8286
lclavicle 1.36167e-014 1.09332e-015
lhumerus -1.86721 5.43857 84.074
lradius 21.7902
lwrist -25.4753
lhand -13.2357 5.62991
lfingers 7.12502
lthumb 12.866 35.2134
rfemur -32.5473 -1.89641 16.4889
rtibia 75.6674
rfoot 178.098 -167.354
rtoes 11.5965
lfemur -71.359 -5.65591 -25.5981
ltibia 68.0946
lfoot -14.9463 -8.13047
ltoes 21.1174
605
root -3.16218 14.5054 -2.36199 -151.347 -4.17337 -183.03
lowerback 13.2692 0.87072 -4.97742
upperback 9.9877 -0.852814 1.3291
thorax 3.17889 -1.33322 4.24993
lowerneck 3.15502 -3.46097 -7.57335
upperneck -16.3279 -4.1567 14.0335
head -4.86427 -2.92102 5.93027
rclavicle -1.27222e-014 -4.17448e-015
rhumerus -8.31659 -12.6353 -86.7993
rradius 30.3112
rwrist 33.7211
rhand -9.45452 -1.93399
rfingers 7.12502
rthumb 16.5089 -31.2517
lclavicle -1.27222e-014 -4.17448e-015
lhumerus -3.53762 5.7727 84.0624
lradius 21.25
lwrist -25.7527
lhand -13.0694 5.66883
lfingers 7.12502
lthumb 13.0263 35.2421
rfemur -32.2104 -1.64131 16.7428
rtibia 74.4266
rfoot 180.327 -168.76
rtoes 9.52935
lfemur -69.1422 -5.70344 -25.3578
ltibia 65.221
lfoot -14.5702 -7.79303
ltoes 18.8894
606
root -3.18158 14.7111 -2.46545 -151.495 -4.29074 -183.086
lowerback 12.7369 0.633835 -5.20468
upperback 9.55599 -1.04389 1.25737
thorax 3.02678 -1.37738 4.31976
lowerneck 3.68605 -3.37669 -6.50325
upperneck -16.0359 -4.08496 12.8725
head -4.94105 -2.84595 5.37415
rclavicle 2.0276e-014 -5.11871e-015
rhumerus -10.0965 -13.1068 -86.655
rradius 30.4213
rwrist 33.3552
rhand -9.39646 -2.20718
rfingers 7.12502
rthumb 16.5648 -31.5202
lclavicle 2.0276e-014 -5.11871e-015
lhumerus -5.6897 6.14245 83.6231
lradius 21.2611
lwrist -25.669
lhand -12.8097 5.89267
lfingers 7.12502
lthumb 13.2766 35.4498
rfemur -32.0241 -1.46003 16.6729
rtibia 73.4404
rfoot 182.622 -170.036
rtoes 7.53045
lfemur -66.8054 -5.79946 -25.4382
ltibia 62.3033
lfoot -14.1707 -7.38841
ltoes 17.1303
607
root -3.20016 14.9024 -2.56469 -151.667 -4.67988 -183.106
lowerback 12.1946 0.40699 -5.12606
upperback 9.26057 -1.22258 1.30216
thorax 3.02259 -1.42216 4.33305
lowerneck 3.45134 -3.45508 -6.07146
upperneck -14.9829 -4.19069 12.5351
head -4.59086 -2.83424 5.14665
rclavicle 1.3418e-014 -1.64494e-014
rhumerus -11.53 -13.698 -86.3214
rradius 30.5131
rwrist 32.8929
rhand -9.37157 -2.42058
rfingers 7.12502
rthumb 16.5887 -31.7316
lclavicle 1.3418e-014 -1.64494e-014
lhumerus -7.49283 6.30845 83.4542
lradius 21.4704
lwrist -25.5598
lhand -12.5167 6.16434
lfingers 7.12502
lthumb 13.5591 35.7028
rfemur -31.9881 -1.54107 16.8057
rtibia 72.7499
rfoot 184.669 -171.192
rtoes 6.90305
lfemur -64.572 -6.07451 -25.3762
ltibia 59.504
lfoot -13.6137 -7.01273
ltoes 15.7502
608
root -3.21835 15.0682 -2.65438 -151.902 -5.04734 -182.957
lowerback 11.6565 0.318127 -4.78066
upperback 9.04742 -1.21541 1.41857
thorax 3.07837 -1.37401 4.25145
lowerneck 3.03438 -3.56883 -6.30842
upperneck -13.899 -4.35615 12.5607
head -4.16819 -2.83738 5.14577
rclavicle 2.45499e-014 -9.54166e-015
rhumerus -12.8907 -14.2019 -85.7771
rradius 30.8059
rwrist 31.933
rhand -9.23461 -2.72718
rfingers 7.12502
rthumb 16.7206 -32.0271
lclavicle 2.45499e-014 -9.54166e-015
lhumerus -8.88343 6.33862 83.526
lradius 21.4981
lwrist -25.7186
lhand -12.4005 6.09249
lfingers 7.12502
lthumb 13.671 35.6235
rfemur -32.1906 -1.57676 17.1414
rtibia 72.4433
rfoot 186.191 -171.997
rtoes 5.99065
lfemur -62.5015 -6.33239 -25.0925
ltibia 56.8233
lfoot -12.8569 -6.55917
ltoes 15.2876
